<svg xmlns="http://www.w3.org/2000/svg" xmlns:xlink="http://www.w3.org/1999/xlink" width="500" zoomAndPan="magnify" viewBox="0 0 375 374.999991" height="500" preserveAspectRatio="xMidYMid meet" version="1.0"><defs><filter x="0%" y="0%" width="100%" height="100%" id="12b4287faf"><feColorMatrix values="0 0 0 0 1 0 0 0 0 1 0 0 0 0 1 0 0 0 1 0" color-interpolation-filters="sRGB"/></filter><g/><clipPath id="53f2512f6c"><path d="M 33.777344 49 L 247.527344 49 L 247.527344 315.816406 L 33.777344 315.816406 Z M 33.777344 49 " clip-rule="nonzero"/></clipPath><clipPath id="8508f0e0ed"><path d="M 242.835938 48.90625 L 312 48.90625 L 312 119.21875 L 242.835938 119.21875 Z M 242.835938 48.90625 " clip-rule="nonzero"/></clipPath><clipPath id="d745f341c8"><path d="M 246.585938 48.90625 L 308.5 48.90625 C 309.496094 48.90625 310.449219 49.300781 311.152344 50.003906 C 311.855469 50.707031 312.25 51.660156 312.25 52.65625 L 312.25 115.40625 C 312.25 116.398438 311.855469 117.355469 311.152344 118.058594 C 310.449219 118.761719 309.496094 119.15625 308.5 119.15625 L 246.585938 119.15625 C 245.589844 119.15625 244.636719 118.761719 243.933594 118.058594 C 243.230469 117.355469 242.835938 116.398438 242.835938 115.40625 L 242.835938 52.65625 C 242.835938 51.660156 243.230469 50.707031 243.933594 50.003906 C 244.636719 49.300781 245.589844 48.90625 246.585938 48.90625 " clip-rule="nonzero"/></clipPath><clipPath id="8376edc606"><path d="M 242.835938 48.90625 L 312.585938 48.90625 L 312.585938 119.40625 L 242.835938 119.40625 Z M 242.835938 48.90625 " clip-rule="nonzero"/></clipPath><clipPath id="034dc39229"><path d="M 246.601562 48.90625 L 308.816406 48.90625 C 309.8125 48.90625 310.773438 49.300781 311.480469 50.007812 C 312.1875 50.710938 312.582031 51.671875 312.582031 52.667969 L 312.582031 115.640625 C 312.582031 116.640625 312.1875 117.597656 311.480469 118.300781 C 310.773438 119.007812 309.8125 119.40625 308.816406 119.40625 L 246.601562 119.40625 C 245.605469 119.40625 244.644531 119.007812 243.9375 118.300781 C 243.230469 117.597656 242.835938 116.640625 242.835938 115.640625 L 242.835938 52.667969 C 242.835938 51.671875 243.230469 50.710938 243.9375 50.007812 C 244.644531 49.300781 245.605469 48.90625 246.601562 48.90625 " clip-rule="nonzero"/></clipPath><mask id="dafe83a2c0"><g filter="url(#12b4287faf)"><rect x="-37.5" width="450" fill="#000000" y="-37.499999" height="449.999989" fill-opacity="0.749"/></g></mask><clipPath id="a8498078a9"><rect x="0" width="107" y="0" height="61"/></clipPath><mask id="b59d701be9"><g filter="url(#12b4287faf)"><rect x="-37.5" width="450" fill="#000000" y="-37.499999" height="449.999989" fill-opacity="0.749"/></g></mask><clipPath id="9a3f27283e"><rect x="0" width="114" y="0" height="190"/></clipPath></defs><g clip-path="url(#53f2512f6c)"><path fill="#90caf9" d="M 181.207031 256.59375 L 131.199219 256.59375 L 167.132812 181.84375 L 221.222656 290.269531 C 229.367188 305.4375 249.75 315.808594 270.117188 315.808594 L 300.5 315.808594 L 296.015625 306.859375 L 236.742188 188.441406 L 167.132812 49.355469 L 33.777344 315.796875 L 121.945312 315.796875 C 154.539062 315.796875 181.207031 289.15625 181.207031 256.59375 Z M 181.207031 256.59375 " fill-opacity="1" fill-rule="nonzero"/></g><g clip-path="url(#8508f0e0ed)"><g clip-path="url(#d745f341c8)"><path fill="#90caf9" d="M 242.835938 48.90625 L 311.390625 48.90625 L 311.390625 119.21875 L 242.835938 119.21875 Z M 242.835938 48.90625 " fill-opacity="1" fill-rule="nonzero"/></g></g><g clip-path="url(#8376edc606)"><g clip-path="url(#034dc39229)"><path stroke-linecap="butt" transform="matrix(0.753672, 0, 0, 0.752753, 242.835413, 48.90472)" fill="none" stroke-linejoin="miter" d="M 4.997066 0.00203256 L 87.546029 0.00203256 C 88.867683 0.00203256 90.142691 0.526151 91.080806 1.465412 C 92.018921 2.399483 92.5424 3.676048 92.5424 4.999316 L 92.5424 88.655822 C 92.5424 89.984279 92.018921 91.255655 91.080806 92.189726 C 90.142691 93.128987 88.867683 93.658295 87.546029 93.658295 L 4.997066 93.658295 C 3.675412 93.658295 2.400405 93.128987 1.462289 92.189726 C 0.524174 91.255655 0.000695457 89.984279 0.000695457 88.655822 L 0.000695457 4.999316 C 0.000695457 3.676048 0.524174 2.399483 1.462289 1.465412 C 2.400405 0.526151 3.675412 0.00203256 4.997066 0.00203256 " stroke="#000000" stroke-width="2" stroke-opacity="1" stroke-miterlimit="4"/></g></g><g mask="url(#dafe83a2c0)"><g transform="matrix(1, 0, 0, 1, 228, 54)"><g clip-path="url(#a8498078a9)"><g fill="#000000" fill-opacity="1"><g transform="translate(70.001557, 60.077337)"><g><path d="M -10.8125 -7.03125 C -10.8125 -6.945312 -10.796875 -6.804688 -10.765625 -6.609375 C -10.734375 -6.421875 -10.703125 -6.21875 -10.671875 -6 C -10.648438 -5.78125 -10.625 -5.566406 -10.59375 -5.359375 C -10.5625 -5.148438 -10.546875 -4.988281 -10.546875 -4.875 C -10.546875 -4.050781 -10.890625 -3.332031 -11.578125 -2.71875 C -12.265625 -2.101562 -13.179688 -1.796875 -14.328125 -1.796875 C -15.085938 -1.796875 -15.816406 -2.046875 -16.515625 -2.546875 C -17.222656 -3.046875 -17.8125 -3.820312 -18.28125 -4.875 C -18.425781 -5.195312 -18.59375 -5.453125 -18.78125 -5.640625 C -18.976562 -5.835938 -19.25 -5.9375 -19.59375 -5.9375 C -20.53125 -5.9375 -21.535156 -5.910156 -22.609375 -5.859375 C -23.679688 -5.816406 -24.9375 -5.753906 -26.375 -5.671875 C -26.664062 -5.640625 -26.941406 -5.539062 -27.203125 -5.375 C -27.460938 -5.21875 -27.757812 -5.046875 -28.09375 -4.859375 C -28.4375 -4.671875 -28.8125 -4.5 -29.21875 -4.34375 C -29.632812 -4.195312 -30.148438 -4.125 -30.765625 -4.125 C -31.316406 -4.125 -31.953125 -4.203125 -32.671875 -4.359375 C -33.390625 -4.523438 -34.0625 -4.863281 -34.6875 -5.375 C -35.320312 -5.894531 -35.851562 -6.613281 -36.28125 -7.53125 C -36.707031 -8.457031 -36.921875 -9.664062 -36.921875 -11.15625 C -36.921875 -11.769531 -36.859375 -12.28125 -36.734375 -12.6875 C -36.617188 -13.101562 -36.476562 -13.460938 -36.3125 -13.765625 C -36.15625 -14.078125 -36.019531 -14.359375 -35.90625 -14.609375 C -35.789062 -14.859375 -35.734375 -15.113281 -35.734375 -15.375 C -35.734375 -15.84375 -35.816406 -16.78125 -35.984375 -18.1875 C -36.160156 -19.59375 -36.410156 -21.285156 -36.734375 -23.265625 C -37.054688 -25.242188 -37.421875 -27.425781 -37.828125 -29.8125 C -38.242188 -32.207031 -38.691406 -34.632812 -39.171875 -37.09375 C -39.660156 -39.550781 -40.148438 -41.953125 -40.640625 -44.296875 C -41.140625 -46.640625 -41.625 -48.765625 -42.09375 -50.671875 C -42.238281 -51.253906 -42.3125 -51.765625 -42.3125 -52.203125 C -42.3125 -52.816406 -42.171875 -53.304688 -41.890625 -53.671875 C -41.617188 -54.046875 -41.273438 -54.316406 -40.859375 -54.484375 C -40.453125 -54.660156 -39.992188 -54.769531 -39.484375 -54.8125 C -38.972656 -54.863281 -38.5 -54.890625 -38.0625 -54.890625 C -37.300781 -54.890625 -36.585938 -54.628906 -35.921875 -54.109375 C -35.265625 -53.597656 -34.742188 -52.757812 -34.359375 -51.59375 C -33.515625 -48.6875 -32.773438 -45.757812 -32.140625 -42.8125 C -31.515625 -39.875 -30.941406 -36.910156 -30.421875 -33.921875 C -29.910156 -30.929688 -29.453125 -27.925781 -29.046875 -24.90625 C -28.640625 -21.894531 -28.226562 -18.894531 -27.8125 -15.90625 C -27.757812 -15.5 -27.609375 -15.191406 -27.359375 -14.984375 C -27.109375 -14.773438 -26.78125 -14.671875 -26.375 -14.671875 L -24.5625 -14.671875 C -24.0625 -14.671875 -23.546875 -14.6875 -23.015625 -14.71875 C -22.492188 -14.75 -22.015625 -14.816406 -21.578125 -14.921875 C -21.140625 -15.023438 -20.78125 -15.160156 -20.5 -15.328125 C -20.21875 -15.503906 -20.078125 -15.742188 -20.078125 -16.046875 C -20.078125 -16.742188 -20.222656 -17.832031 -20.515625 -19.3125 C -20.816406 -20.789062 -21.175781 -22.457031 -21.59375 -24.3125 C -22.019531 -26.175781 -22.488281 -28.125 -23 -30.15625 C -23.519531 -32.195312 -23.988281 -34.125 -24.40625 -35.9375 C -24.832031 -37.757812 -25.191406 -39.359375 -25.484375 -40.734375 C -25.773438 -42.109375 -25.921875 -43.078125 -25.921875 -43.640625 C -25.921875 -44.460938 -25.617188 -45.082031 -25.015625 -45.5 C -24.421875 -45.925781 -23.671875 -46.210938 -22.765625 -46.359375 C -22.617188 -46.359375 -22.484375 -46.375 -22.359375 -46.40625 C -22.242188 -46.4375 -22.113281 -46.453125 -21.96875 -46.453125 C -21.125 -46.453125 -20.34375 -46.191406 -19.625 -45.671875 C -18.90625 -45.160156 -18.367188 -44.25 -18.015625 -42.9375 C -17.898438 -42.582031 -17.71875 -41.878906 -17.46875 -40.828125 C -17.21875 -39.773438 -16.921875 -38.53125 -16.578125 -37.09375 C -16.242188 -35.65625 -15.882812 -34.097656 -15.5 -32.421875 C -15.125 -30.753906 -14.753906 -29.113281 -14.390625 -27.5 C -14.023438 -25.894531 -13.671875 -24.394531 -13.328125 -23 C -12.992188 -21.613281 -12.726562 -20.476562 -12.53125 -19.59375 C -12.320312 -18.800781 -12.15625 -18.328125 -12.03125 -18.171875 C -11.914062 -18.015625 -11.773438 -17.9375 -11.609375 -17.9375 C -10.960938 -17.988281 -10.359375 -18.3125 -9.796875 -18.90625 C -9.242188 -19.507812 -8.734375 -20.273438 -8.265625 -21.203125 C -7.796875 -22.128906 -7.367188 -23.171875 -6.984375 -24.328125 C -6.609375 -25.484375 -6.296875 -26.679688 -6.046875 -27.921875 C -5.796875 -29.171875 -5.597656 -30.394531 -5.453125 -31.59375 C -5.304688 -32.800781 -5.234375 -33.914062 -5.234375 -34.9375 C -5.234375 -35.375 -5.234375 -36.003906 -5.234375 -36.828125 C -5.234375 -37.648438 -5.253906 -38.550781 -5.296875 -39.53125 C -5.335938 -40.507812 -5.398438 -41.519531 -5.484375 -42.5625 C -5.578125 -43.601562 -5.703125 -44.539062 -5.859375 -45.375 C -6.023438 -46.207031 -6.234375 -46.894531 -6.484375 -47.4375 C -6.734375 -47.976562 -7.035156 -48.25 -7.390625 -48.25 C -7.703125 -48.25 -8.035156 -48.140625 -8.390625 -47.921875 C -8.742188 -47.703125 -9.125 -47.59375 -9.53125 -47.59375 C -10.125 -47.59375 -10.703125 -47.753906 -11.265625 -48.078125 C -11.835938 -48.398438 -12.347656 -48.816406 -12.796875 -49.328125 C -13.253906 -49.835938 -13.625 -50.421875 -13.90625 -51.078125 C -14.1875 -51.742188 -14.328125 -52.414062 -14.328125 -53.09375 C -14.328125 -53.9375 -14.15625 -54.707031 -13.8125 -55.40625 C -13.476562 -56.113281 -13.039062 -56.722656 -12.5 -57.234375 C -11.957031 -57.753906 -11.332031 -58.148438 -10.625 -58.421875 C -9.925781 -58.703125 -9.210938 -58.84375 -8.484375 -58.84375 C -6.546875 -58.84375 -4.875 -58.128906 -3.46875 -56.703125 C -2.0625 -55.285156 -0.898438 -53.429688 0.015625 -51.140625 C 0.941406 -48.859375 1.628906 -46.28125 2.078125 -43.40625 C 2.535156 -40.539062 2.765625 -37.660156 2.765625 -34.765625 C 2.765625 -31.359375 2.535156 -28.25 2.078125 -25.4375 C 1.628906 -22.625 0.910156 -20.101562 -0.078125 -17.875 C -1.078125 -15.65625 -2.375 -13.738281 -3.96875 -12.125 C -5.570312 -10.519531 -7.515625 -9.203125 -9.796875 -8.171875 C -10.472656 -7.816406 -10.8125 -7.4375 -10.8125 -7.03125 Z M -10.8125 -7.03125 "/></g></g></g></g></g></g><g mask="url(#b59d701be9)"><g transform="matrix(1, 0, 0, 1, 230, 130)"><g clip-path="url(#9a3f27283e)"><g fill="#90caf9" fill-opacity="1"><g transform="translate(74.276083, 188.838631)"><g><path d="M -25.28125 -48.859375 C -25.28125 -48.484375 -24.988281 -48.15625 -24.40625 -47.875 C -22.113281 -46.695312 -20.039062 -45.453125 -18.1875 -44.140625 C -16.332031 -42.828125 -14.753906 -41.503906 -13.453125 -40.171875 C -12.148438 -38.847656 -11.148438 -37.535156 -10.453125 -36.234375 C -9.765625 -34.929688 -9.421875 -33.707031 -9.421875 -32.5625 C -9.421875 -31.457031 -9.660156 -30.429688 -10.140625 -29.484375 C -10.617188 -28.535156 -11.519531 -27.515625 -12.84375 -26.421875 C -14.175781 -25.328125 -16.015625 -24.070312 -18.359375 -22.65625 C -20.710938 -21.25 -23.78125 -19.523438 -27.5625 -17.484375 C -28.175781 -17.148438 -28.628906 -16.800781 -28.921875 -16.4375 C -29.222656 -16.082031 -29.375 -15.769531 -29.375 -15.5 C -29.375 -15.09375 -28.945312 -14.71875 -28.09375 -14.375 C -27.238281 -14.039062 -26.046875 -13.75 -24.515625 -13.5 C -22.984375 -13.25 -21.144531 -13.054688 -19 -12.921875 C -16.851562 -12.785156 -14.476562 -12.71875 -11.875 -12.71875 C -10.332031 -12.71875 -8.785156 -12.800781 -7.234375 -12.96875 C -5.691406 -13.132812 -4.097656 -13.21875 -2.453125 -13.21875 C -1.898438 -13.21875 -1.382812 -13.0625 -0.90625 -12.75 C -0.425781 -12.445312 -0.0078125 -12.039062 0.34375 -11.53125 C 0.695312 -11.019531 0.984375 -10.414062 1.203125 -9.71875 C 1.421875 -9.019531 1.53125 -8.285156 1.53125 -7.515625 C 1.53125 -5.972656 0.601562 -4.859375 -1.25 -4.171875 C -3.101562 -3.492188 -6.070312 -3.15625 -10.15625 -3.15625 C -15.320312 -3.15625 -20.015625 -3.441406 -24.234375 -4.015625 C -28.460938 -4.585938 -32.082031 -5.40625 -35.09375 -6.46875 C -38.113281 -7.539062 -40.445312 -8.8125 -42.09375 -10.28125 C -43.75 -11.75 -44.578125 -13.394531 -44.578125 -15.21875 C -44.578125 -16.820312 -43.65625 -18.359375 -41.8125 -19.828125 C -39.976562 -21.296875 -37.003906 -22.882812 -32.890625 -24.59375 C -31.222656 -25.269531 -29.660156 -26 -28.203125 -26.78125 C -26.753906 -27.570312 -25.492188 -28.363281 -24.421875 -29.15625 C -23.359375 -29.945312 -22.523438 -30.710938 -21.921875 -31.453125 C -21.316406 -32.191406 -21.015625 -32.859375 -21.015625 -33.453125 C -21.015625 -34.035156 -21.144531 -34.597656 -21.40625 -35.140625 C -21.675781 -35.679688 -22.25 -36.300781 -23.125 -37 C -24.007812 -37.695312 -25.300781 -38.515625 -27 -39.453125 C -28.695312 -40.398438 -30.972656 -41.570312 -33.828125 -42.96875 C -35.304688 -43.707031 -36.539062 -44.367188 -37.53125 -44.953125 C -38.519531 -45.546875 -39.316406 -46.132812 -39.921875 -46.71875 C -40.523438 -47.300781 -40.957031 -47.914062 -41.21875 -48.5625 C -41.476562 -49.21875 -41.609375 -49.945312 -41.609375 -50.75 C -41.609375 -51.707031 -41.097656 -52.648438 -40.078125 -53.578125 C -39.054688 -54.515625 -37.695312 -55.421875 -36 -56.296875 C -34.300781 -57.179688 -32.320312 -58.039062 -30.0625 -58.875 C -27.800781 -59.707031 -25.429688 -60.519531 -22.953125 -61.3125 C -20.484375 -62.101562 -17.972656 -62.875 -15.421875 -63.625 C -12.867188 -64.382812 -10.453125 -65.117188 -8.171875 -65.828125 C -7.484375 -66.015625 -7.007812 -66.144531 -6.75 -66.21875 C -6.488281 -66.300781 -6.171875 -66.34375 -5.796875 -66.34375 C -5.273438 -66.34375 -4.757812 -66.179688 -4.25 -65.859375 C -3.738281 -65.535156 -3.28125 -65.109375 -2.875 -64.578125 C -2.46875 -64.054688 -2.140625 -63.460938 -1.890625 -62.796875 C -1.648438 -62.128906 -1.53125 -61.472656 -1.53125 -60.828125 C -1.53125 -59.960938 -1.628906 -59.285156 -1.828125 -58.796875 C -2.035156 -58.316406 -2.398438 -57.941406 -2.921875 -57.671875 C -3.203125 -57.515625 -3.941406 -57.25 -5.140625 -56.875 C -6.347656 -56.507812 -7.78125 -56.070312 -9.4375 -55.5625 C -11.09375 -55.050781 -12.847656 -54.492188 -14.703125 -53.890625 C -16.554688 -53.285156 -18.265625 -52.679688 -19.828125 -52.078125 C -21.390625 -51.472656 -22.6875 -50.890625 -23.71875 -50.328125 C -24.757812 -49.773438 -25.28125 -49.285156 -25.28125 -48.859375 Z M -25.28125 -48.859375 "/></g></g></g><g fill="#90caf9" fill-opacity="1"><g transform="translate(74.276083, 112.934724)"><g><path d="M -9.234375 -2.921875 C -9.234375 -2.398438 -9.492188 -2.003906 -10.015625 -1.734375 C -10.546875 -1.472656 -11.289062 -1.34375 -12.25 -1.34375 C -12.40625 -1.34375 -12.582031 -1.34375 -12.78125 -1.34375 C -12.976562 -1.34375 -13.375 -1.375 -13.96875 -1.4375 C -16.195312 -1.53125 -17.492188 -2.628906 -17.859375 -4.734375 L -17.953125 -5.796875 C -18.046875 -6.503906 -18.269531 -7.0625 -18.625 -7.46875 C -18.976562 -7.875 -19.484375 -8.164062 -20.140625 -8.34375 C -21.898438 -8.875 -23.675781 -9.398438 -25.46875 -9.921875 C -27.257812 -10.453125 -29.039062 -11.007812 -30.8125 -11.59375 C -31.800781 -11.90625 -32.859375 -12.222656 -33.984375 -12.546875 C -35.109375 -12.867188 -36.226562 -13.222656 -37.34375 -13.609375 C -38.457031 -14.003906 -39.554688 -14.457031 -40.640625 -14.96875 C -41.722656 -15.476562 -42.710938 -16.054688 -43.609375 -16.703125 C -43.984375 -16.984375 -44.367188 -17.367188 -44.765625 -17.859375 C -45.171875 -18.359375 -45.535156 -18.921875 -45.859375 -19.546875 C -46.179688 -20.179688 -46.441406 -20.863281 -46.640625 -21.59375 C -46.847656 -22.320312 -46.953125 -23.039062 -46.953125 -23.75 C -46.953125 -24.675781 -46.65625 -25.585938 -46.0625 -26.484375 C -45.226562 -27.691406 -44.222656 -28.882812 -43.046875 -30.0625 C -41.878906 -31.238281 -40.378906 -32.550781 -38.546875 -34 C -36.722656 -35.457031 -34.519531 -37.144531 -31.9375 -39.0625 C -29.351562 -40.976562 -26.238281 -43.285156 -22.59375 -45.984375 C -22.125 -46.378906 -21.773438 -46.800781 -21.546875 -47.25 C -21.316406 -47.695312 -21.203125 -48.234375 -21.203125 -48.859375 L -21.203125 -51.5 C -21.203125 -52.582031 -20.945312 -53.425781 -20.4375 -54.03125 C -19.925781 -54.632812 -19.222656 -54.9375 -18.328125 -54.9375 C -18.140625 -54.9375 -17.921875 -54.925781 -17.671875 -54.90625 C -17.429688 -54.894531 -17.1875 -54.84375 -16.9375 -54.75 L -14.328125 -53.859375 C -14.085938 -53.796875 -13.875 -53.75 -13.6875 -53.71875 C -13.5 -53.6875 -13.3125 -53.671875 -13.125 -53.671875 C -12.476562 -53.671875 -11.816406 -53.890625 -11.140625 -54.328125 L -4.359375 -59.296875 C -3.523438 -59.847656 -2.738281 -60.125 -2 -60.125 C -0.882812 -60.125 0.0859375 -59.488281 0.921875 -58.21875 L 2.1875 -56.46875 C 2.457031 -56.03125 2.671875 -55.617188 2.828125 -55.234375 C 2.984375 -54.847656 3.0625 -54.453125 3.0625 -54.046875 C 3.0625 -53.492188 2.898438 -52.976562 2.578125 -52.5 C 2.253906 -52.019531 1.8125 -51.5625 1.25 -51.125 C -0.851562 -49.644531 -2.925781 -48.15625 -4.96875 -46.65625 C -7.007812 -45.15625 -9.035156 -43.628906 -11.046875 -42.078125 C -12.035156 -41.367188 -12.53125 -40.425781 -12.53125 -39.25 C -12.375 -35.476562 -12.160156 -31.742188 -11.890625 -28.046875 C -11.628906 -24.347656 -11.316406 -20.644531 -10.953125 -16.9375 C -10.828125 -15.601562 -10.113281 -14.765625 -8.8125 -14.421875 L -1.15625 -12.34375 C 0.882812 -11.78125 1.90625 -10.539062 1.90625 -8.625 L 1.90625 -7.890625 L 1.71875 -6.453125 C 1.625 -5.398438 1.296875 -4.601562 0.734375 -4.0625 C 0.179688 -3.519531 -0.539062 -3.25 -1.4375 -3.25 C -1.625 -3.25 -1.820312 -3.265625 -2.03125 -3.296875 C -2.25 -3.328125 -2.484375 -3.375 -2.734375 -3.4375 C -3.359375 -3.59375 -3.992188 -3.753906 -4.640625 -3.921875 C -5.285156 -4.085938 -5.921875 -4.265625 -6.546875 -4.453125 C -6.785156 -4.515625 -7.003906 -4.5625 -7.203125 -4.59375 C -7.410156 -4.625 -7.609375 -4.640625 -7.796875 -4.640625 C -8.753906 -4.640625 -9.234375 -4.269531 -9.234375 -3.53125 Z M -33.734375 -25 C -34.003906 -24.695312 -34.234375 -24.421875 -34.421875 -24.171875 C -34.609375 -23.921875 -34.703125 -23.65625 -34.703125 -23.375 C -34.703125 -22.601562 -34.160156 -22.066406 -33.078125 -21.765625 C -31.253906 -21.140625 -29.453125 -20.539062 -27.671875 -19.96875 C -25.890625 -19.394531 -24.070312 -18.816406 -22.21875 -18.234375 C -22.0625 -18.171875 -21.921875 -18.140625 -21.796875 -18.140625 C -21.679688 -18.140625 -21.546875 -18.140625 -21.390625 -18.140625 C -20.242188 -18.140625 -19.671875 -18.742188 -19.671875 -19.953125 L -19.671875 -20.40625 C -19.921875 -22.269531 -20.113281 -24.128906 -20.25 -25.984375 C -20.382812 -27.835938 -20.5 -29.691406 -20.59375 -31.546875 C -20.65625 -32.160156 -20.816406 -32.644531 -21.078125 -33 C -21.347656 -33.363281 -21.695312 -33.546875 -22.125 -33.546875 C -22.53125 -33.546875 -23.007812 -33.359375 -23.5625 -32.984375 C -25.300781 -31.679688 -27.007812 -30.375 -28.6875 -29.0625 C -30.375 -27.75 -32.054688 -26.394531 -33.734375 -25 Z M -33.734375 -25 "/></g></g></g><g fill="#90caf9" fill-opacity="1"><g transform="translate(74.276083, 46.912813)"><g><path d="M -38.546875 -11.96875 C -38.546875 -11.71875 -38.492188 -11.242188 -38.390625 -10.546875 C -38.285156 -9.859375 -38.15625 -9.050781 -38 -8.125 C -37.84375 -7.195312 -37.660156 -6.222656 -37.453125 -5.203125 C -37.253906 -4.179688 -37.078125 -3.21875 -36.921875 -2.3125 C -36.773438 -1.414062 -36.644531 -0.640625 -36.53125 0.015625 C -36.425781 0.679688 -36.375 1.125 -36.375 1.34375 C -36.375 3.414062 -37.457031 4.453125 -39.625 4.453125 C -40.207031 4.453125 -40.785156 4.394531 -41.359375 4.28125 C -41.929688 4.175781 -42.457031 3.984375 -42.9375 3.703125 C -43.414062 3.429688 -43.820312 3.0625 -44.15625 2.59375 C -44.5 2.132812 -44.734375 1.546875 -44.859375 0.828125 C -45.421875 -2.785156 -46.007812 -6.382812 -46.625 -9.96875 C -47.238281 -13.5625 -47.890625 -17.179688 -48.578125 -20.828125 C -48.734375 -21.628906 -48.878906 -22.351562 -49.015625 -23 C -49.148438 -23.65625 -49.34375 -24.382812 -49.59375 -25.1875 C -49.84375 -26.050781 -50.082031 -26.992188 -50.3125 -28.015625 C -50.539062 -29.035156 -50.75 -30.0625 -50.9375 -31.09375 C -51.125 -32.132812 -51.28125 -33.140625 -51.40625 -34.109375 C -51.53125 -35.085938 -51.59375 -35.984375 -51.59375 -36.796875 C -51.59375 -37.785156 -51.273438 -38.535156 -50.640625 -39.046875 C -50.003906 -39.554688 -49.113281 -39.8125 -47.96875 -39.8125 C -47.382812 -39.8125 -46.820312 -39.765625 -46.28125 -39.671875 C -45.738281 -39.578125 -45.25 -39.40625 -44.8125 -39.15625 C -44.382812 -38.90625 -44.03125 -38.5625 -43.75 -38.125 C -43.46875 -37.695312 -43.296875 -37.144531 -43.234375 -36.46875 C -42.992188 -34.707031 -42.691406 -32.820312 -42.328125 -30.8125 C -41.972656 -28.800781 -41.582031 -27.050781 -41.15625 -25.5625 C -40.96875 -24.945312 -40.664062 -24.484375 -40.25 -24.171875 C -39.832031 -23.859375 -39.3125 -23.65625 -38.6875 -23.5625 C -38.101562 -23.46875 -37.507812 -23.410156 -36.90625 -23.390625 C -36.300781 -23.378906 -35.722656 -23.375 -35.171875 -23.375 C -33.867188 -23.375 -32.566406 -23.425781 -31.265625 -23.53125 C -29.972656 -23.644531 -28.675781 -23.75 -27.375 -23.84375 C -22.914062 -24.125 -18.503906 -24.550781 -14.140625 -25.125 C -9.785156 -25.695312 -5.378906 -26.320312 -0.921875 -27 C -0.773438 -27.0625 -0.625 -27.09375 -0.46875 -27.09375 C -0.3125 -27.09375 -0.15625 -27.09375 0 -27.09375 C 1.695312 -27.09375 2.90625 -26.132812 3.625 -24.21875 L 4.265625 -22.125 C 4.453125 -21.570312 4.546875 -21.03125 4.546875 -20.5 C 4.546875 -19.695312 4.289062 -19.046875 3.78125 -18.546875 C 3.269531 -18.054688 2.519531 -17.734375 1.53125 -17.578125 C -3.789062 -16.710938 -9.085938 -15.953125 -14.359375 -15.296875 C -19.628906 -14.648438 -24.941406 -14.238281 -30.296875 -14.0625 C -31.160156 -14 -32.101562 -13.953125 -33.125 -13.921875 C -34.144531 -13.890625 -35.195312 -13.875 -36.28125 -13.875 C -37.789062 -13.875 -38.546875 -13.238281 -38.546875 -11.96875 Z M -38.546875 -11.96875 "/></g></g></g></g></g></g></svg>