<svg xmlns="http://www.w3.org/2000/svg" xmlns:xlink="http://www.w3.org/1999/xlink" width="500" zoomAndPan="magnify" viewBox="0 0 375 374.999991" height="500" preserveAspectRatio="xMidYMid meet" version="1.0"><defs><filter x="0%" y="0%" width="100%" height="100%" id="577e402691"><feColorMatrix values="0 0 0 0 1 0 0 0 0 1 0 0 0 0 1 0 0 0 1 0" color-interpolation-filters="sRGB"/></filter><g/><clipPath id="a70cde08ad"><path d="M 168.078125 61.964844 L 221.328125 61.964844 L 221.328125 115.214844 L 168.078125 115.214844 Z M 168.078125 61.964844 " clip-rule="nonzero"/></clipPath><clipPath id="55c3ea14e2"><path d="M 235 61.21875 L 324.441406 61.21875 L 324.441406 314 L 235 314 Z M 235 61.21875 " clip-rule="nonzero"/></clipPath><clipPath id="32dc623b8b"><path d="M 324.441406 78.46875 L 324.441406 296.539062 C 324.441406 301.117188 322.625 305.503906 319.390625 308.738281 C 316.15625 311.972656 311.765625 313.789062 307.191406 313.789062 L 251.820312 313.789062 C 247.246094 313.789062 242.859375 311.972656 239.625 308.738281 C 236.386719 305.503906 234.570312 301.117188 234.570312 296.539062 L 234.570312 78.46875 C 234.570312 73.894531 236.386719 69.507812 239.625 66.269531 C 242.859375 63.035156 247.246094 61.21875 251.820312 61.21875 L 307.191406 61.21875 C 311.765625 61.21875 316.15625 63.035156 319.390625 66.269531 C 322.625 69.507812 324.441406 73.894531 324.441406 78.46875 " clip-rule="nonzero"/></clipPath><mask id="0ebcfc9710"><g filter="url(#577e402691)"><rect x="-37.5" width="450" fill="#000000" y="-37.499999" height="449.999989" fill-opacity="0.749"/></g></mask><clipPath id="43e71366ff"><path d="M 31 0.28125 L 83 0.28125 L 83 66 L 31 66 Z M 31 0.28125 " clip-rule="nonzero"/></clipPath><clipPath id="351b8d3b99"><rect x="0" width="122" y="0" height="246"/></clipPath></defs><g fill="#90caf9" fill-opacity="1"><g transform="translate(22.922647, 316.654774)"><g><path d="M 195.164062 -3.730469 L 100.691406 -246.753906 C 99.757812 -249.238281 95.40625 -249.238281 94.472656 -246.753906 L 0.3125 -3.730469 C -0.621094 -1.863281 0.621094 0 3.417969 0 L 45.996094 0 C 47.238281 0 48.792969 -0.621094 49.101562 -1.863281 L 97.582031 -140.46875 L 146.683594 -1.863281 C 146.996094 -0.621094 148.546875 0 149.480469 0 L 192.367188 0 C 194.542969 0 196.097656 -1.863281 195.164062 -3.730469 Z M 195.164062 -3.730469 "/></g></g></g><g clip-path="url(#a70cde08ad)"><path fill="#90caf9" d="M 168.078125 61.964844 L 168.078125 115.214844 L 221.328125 115.214844 L 221.328125 61.964844 Z M 168.078125 61.964844 " fill-opacity="1" fill-rule="nonzero"/></g><g clip-path="url(#55c3ea14e2)"><g clip-path="url(#32dc623b8b)"><path fill="#90caf9" d="M 324.441406 61.21875 L 324.441406 313.679688 L 235.574219 313.679688 L 235.574219 61.21875 Z M 324.441406 61.21875 " fill-opacity="1" fill-rule="nonzero"/></g></g><g mask="url(#0ebcfc9710)"><g transform="matrix(1, 0, 0, 1, 221, 65)"><g clip-path="url(#351b8d3b99)"><g fill="#000000" fill-opacity="1"><g transform="translate(79.147999, 244.147432)"><g><path d="M -27.203125 -52.546875 C -27.203125 -52.148438 -26.882812 -51.800781 -26.25 -51.5 C -23.789062 -50.238281 -21.5625 -48.898438 -19.5625 -47.484375 C -17.5625 -46.066406 -15.863281 -44.644531 -14.46875 -43.21875 C -13.070312 -41.789062 -12 -40.375 -11.25 -38.96875 C -10.5 -37.570312 -10.125 -36.257812 -10.125 -35.03125 C -10.125 -33.832031 -10.378906 -32.722656 -10.890625 -31.703125 C -11.410156 -30.691406 -12.382812 -29.597656 -13.8125 -28.421875 C -15.25 -27.242188 -17.226562 -25.894531 -19.75 -24.375 C -22.28125 -22.863281 -25.578125 -21.007812 -29.640625 -18.8125 C -30.304688 -18.445312 -30.796875 -18.070312 -31.109375 -17.6875 C -31.429688 -17.300781 -31.59375 -16.960938 -31.59375 -16.671875 C -31.59375 -16.234375 -31.132812 -15.832031 -30.21875 -15.46875 C -29.300781 -15.101562 -28.019531 -14.785156 -26.375 -14.515625 C -24.726562 -14.253906 -22.75 -14.046875 -20.4375 -13.890625 C -18.125 -13.742188 -15.570312 -13.671875 -12.78125 -13.671875 C -11.113281 -13.671875 -9.445312 -13.757812 -7.78125 -13.9375 C -6.125 -14.125 -4.410156 -14.21875 -2.640625 -14.21875 C -2.046875 -14.21875 -1.488281 -14.050781 -0.96875 -13.71875 C -0.457031 -13.382812 -0.0078125 -12.941406 0.375 -12.390625 C 0.757812 -11.847656 1.066406 -11.203125 1.296875 -10.453125 C 1.523438 -9.703125 1.640625 -8.910156 1.640625 -8.078125 C 1.640625 -6.421875 0.644531 -5.222656 -1.34375 -4.484375 C -3.34375 -3.753906 -6.535156 -3.390625 -10.921875 -3.390625 C -16.484375 -3.390625 -21.535156 -3.695312 -26.078125 -4.3125 C -30.617188 -4.925781 -34.507812 -5.804688 -37.75 -6.953125 C -41 -8.109375 -43.507812 -9.472656 -45.28125 -11.046875 C -47.0625 -12.628906 -47.953125 -14.40625 -47.953125 -16.375 C -47.953125 -18.101562 -46.960938 -19.753906 -44.984375 -21.328125 C -43.003906 -22.910156 -39.800781 -24.617188 -35.375 -26.453125 C -33.582031 -27.179688 -31.90625 -27.96875 -30.34375 -28.8125 C -28.78125 -29.664062 -27.421875 -30.515625 -26.265625 -31.359375 C -25.117188 -32.210938 -24.222656 -33.035156 -23.578125 -33.828125 C -22.929688 -34.628906 -22.609375 -35.347656 -22.609375 -35.984375 C -22.609375 -36.609375 -22.75 -37.210938 -23.03125 -37.796875 C -23.3125 -38.378906 -23.925781 -39.046875 -24.875 -39.796875 C -25.820312 -40.546875 -27.207031 -41.425781 -29.03125 -42.4375 C -30.863281 -43.457031 -33.3125 -44.71875 -36.375 -46.21875 C -37.976562 -47.007812 -39.3125 -47.722656 -40.375 -48.359375 C -41.4375 -48.992188 -42.289062 -49.625 -42.9375 -50.25 C -43.59375 -50.882812 -44.0625 -51.550781 -44.34375 -52.25 C -44.625 -52.945312 -44.765625 -53.726562 -44.765625 -54.59375 C -44.765625 -55.625 -44.210938 -56.640625 -43.109375 -57.640625 C -42.015625 -58.640625 -40.550781 -59.613281 -38.71875 -60.5625 C -36.894531 -61.507812 -34.765625 -62.429688 -32.328125 -63.328125 C -29.898438 -64.222656 -27.351562 -65.09375 -24.6875 -65.9375 C -22.03125 -66.789062 -19.328125 -67.625 -16.578125 -68.4375 C -13.835938 -69.257812 -11.238281 -70.050781 -8.78125 -70.8125 C -8.050781 -71.007812 -7.546875 -71.148438 -7.265625 -71.234375 C -6.984375 -71.316406 -6.640625 -71.359375 -6.234375 -71.359375 C -5.671875 -71.359375 -5.113281 -71.179688 -4.5625 -70.828125 C -4.019531 -70.484375 -3.53125 -70.03125 -3.09375 -69.46875 C -2.65625 -68.90625 -2.300781 -68.265625 -2.03125 -67.546875 C -1.769531 -66.828125 -1.640625 -66.117188 -1.640625 -65.421875 C -1.640625 -64.492188 -1.75 -63.769531 -1.96875 -63.25 C -2.1875 -62.738281 -2.578125 -62.332031 -3.140625 -62.03125 C -3.441406 -61.863281 -4.238281 -61.578125 -5.53125 -61.171875 C -6.832031 -60.773438 -8.375 -60.300781 -10.15625 -59.75 C -11.9375 -59.207031 -13.820312 -58.609375 -15.8125 -57.953125 C -17.8125 -57.304688 -19.648438 -56.660156 -21.328125 -56.015625 C -23.015625 -55.367188 -24.414062 -54.742188 -25.53125 -54.140625 C -26.644531 -53.546875 -27.203125 -53.015625 -27.203125 -52.546875 Z M -27.203125 -52.546875 "/></g></g></g><g fill="#000000" fill-opacity="1"><g transform="translate(79.147999, 171.198543)"><g><path d="M -9.9375 -3.140625 C -9.9375 -2.578125 -10.21875 -2.15625 -10.78125 -1.875 C -11.34375 -1.59375 -12.140625 -1.453125 -13.171875 -1.453125 C -13.335938 -1.453125 -13.53125 -1.453125 -13.75 -1.453125 C -13.96875 -1.453125 -14.390625 -1.484375 -15.015625 -1.546875 C -17.410156 -1.648438 -18.8125 -2.832031 -19.21875 -5.09375 L -19.3125 -6.234375 C -19.414062 -7.003906 -19.65625 -7.601562 -20.03125 -8.03125 C -20.414062 -8.46875 -20.957031 -8.785156 -21.65625 -8.984375 C -23.550781 -9.546875 -25.460938 -10.109375 -27.390625 -10.671875 C -29.328125 -11.242188 -31.242188 -11.84375 -33.140625 -12.46875 C -34.203125 -12.800781 -35.335938 -13.140625 -36.546875 -13.484375 C -37.765625 -13.835938 -38.972656 -14.222656 -40.171875 -14.640625 C -41.367188 -15.054688 -42.550781 -15.539062 -43.71875 -16.09375 C -44.882812 -16.644531 -45.945312 -17.269531 -46.90625 -17.96875 C -47.3125 -18.269531 -47.726562 -18.6875 -48.15625 -19.21875 C -48.59375 -19.75 -48.984375 -20.351562 -49.328125 -21.03125 C -49.679688 -21.71875 -49.960938 -22.453125 -50.171875 -23.234375 C -50.390625 -24.015625 -50.5 -24.785156 -50.5 -25.546875 C -50.5 -26.546875 -50.179688 -27.53125 -49.546875 -28.5 C -48.648438 -29.789062 -47.570312 -31.066406 -46.3125 -32.328125 C -45.050781 -33.597656 -43.4375 -35.015625 -41.46875 -36.578125 C -39.507812 -38.140625 -37.140625 -39.953125 -34.359375 -42.015625 C -31.578125 -44.078125 -28.222656 -46.554688 -24.296875 -49.453125 C -23.796875 -49.890625 -23.421875 -50.347656 -23.171875 -50.828125 C -22.929688 -51.304688 -22.8125 -51.878906 -22.8125 -52.546875 L -22.8125 -55.390625 C -22.8125 -56.554688 -22.535156 -57.460938 -21.984375 -58.109375 C -21.429688 -58.765625 -20.675781 -59.09375 -19.71875 -59.09375 C -19.507812 -59.09375 -19.269531 -59.082031 -19 -59.0625 C -18.738281 -59.039062 -18.476562 -58.984375 -18.21875 -58.890625 L -15.421875 -57.9375 C -15.148438 -57.875 -14.914062 -57.820312 -14.71875 -57.78125 C -14.519531 -57.75 -14.320312 -57.734375 -14.125 -57.734375 C -13.425781 -57.734375 -12.710938 -57.96875 -11.984375 -58.4375 L -4.6875 -63.78125 C -3.789062 -64.375 -2.941406 -64.671875 -2.140625 -64.671875 C -0.941406 -64.671875 0.101562 -63.988281 1 -62.625 L 2.34375 -60.734375 C 2.644531 -60.265625 2.878906 -59.820312 3.046875 -59.40625 C 3.210938 -58.988281 3.296875 -58.566406 3.296875 -58.140625 C 3.296875 -57.535156 3.117188 -56.972656 2.765625 -56.453125 C 2.421875 -55.941406 1.945312 -55.457031 1.34375 -55 C -0.914062 -53.394531 -3.144531 -51.785156 -5.34375 -50.171875 C -7.539062 -48.566406 -9.71875 -46.929688 -11.875 -45.265625 C -12.9375 -44.492188 -13.46875 -43.476562 -13.46875 -42.21875 C -13.300781 -38.15625 -13.078125 -34.132812 -12.796875 -30.15625 C -12.515625 -26.1875 -12.175781 -22.207031 -11.78125 -18.21875 C -11.644531 -16.78125 -10.878906 -15.878906 -9.484375 -15.515625 L -1.25 -13.28125 C 0.945312 -12.675781 2.046875 -11.34375 2.046875 -9.28125 L 2.046875 -8.484375 L 1.84375 -6.9375 C 1.75 -5.800781 1.398438 -4.941406 0.796875 -4.359375 C 0.203125 -3.785156 -0.578125 -3.5 -1.546875 -3.5 C -1.742188 -3.5 -1.957031 -3.515625 -2.1875 -3.546875 C -2.425781 -3.578125 -2.675781 -3.625 -2.9375 -3.6875 C -3.601562 -3.851562 -4.285156 -4.023438 -4.984375 -4.203125 C -5.679688 -4.390625 -6.363281 -4.585938 -7.03125 -4.796875 C -7.300781 -4.859375 -7.539062 -4.90625 -7.75 -4.9375 C -7.96875 -4.96875 -8.179688 -4.984375 -8.390625 -4.984375 C -9.421875 -4.984375 -9.9375 -4.585938 -9.9375 -3.796875 Z M -36.28125 -26.890625 C -36.582031 -26.566406 -36.832031 -26.269531 -37.03125 -26 C -37.226562 -25.726562 -37.328125 -25.445312 -37.328125 -25.15625 C -37.328125 -24.320312 -36.742188 -23.738281 -35.578125 -23.40625 C -33.617188 -22.738281 -31.679688 -22.097656 -29.765625 -21.484375 C -27.847656 -20.867188 -25.894531 -20.242188 -23.90625 -19.609375 C -23.738281 -19.546875 -23.585938 -19.515625 -23.453125 -19.515625 C -23.316406 -19.515625 -23.164062 -19.515625 -23 -19.515625 C -21.769531 -19.515625 -21.15625 -20.160156 -21.15625 -21.453125 L -21.15625 -21.953125 C -21.425781 -23.953125 -21.632812 -25.945312 -21.78125 -27.9375 C -21.925781 -29.9375 -22.050781 -31.9375 -22.15625 -33.9375 C -22.21875 -34.601562 -22.390625 -35.125 -22.671875 -35.5 C -22.960938 -35.882812 -23.335938 -36.078125 -23.796875 -36.078125 C -24.234375 -36.078125 -24.75 -35.878906 -25.34375 -35.484375 C -27.207031 -34.085938 -29.046875 -32.679688 -30.859375 -31.265625 C -32.671875 -29.847656 -34.476562 -28.390625 -36.28125 -26.890625 Z M -36.28125 -26.890625 "/></g></g></g><g fill="#000000" fill-opacity="1"><g transform="translate(79.147999, 108.877898)"><g><path d="M -41.46875 -12.875 C -41.46875 -12.601562 -41.410156 -12.09375 -41.296875 -11.34375 C -41.179688 -10.601562 -41.039062 -9.734375 -40.875 -8.734375 C -40.707031 -7.734375 -40.515625 -6.679688 -40.296875 -5.578125 C -40.078125 -4.484375 -39.882812 -3.453125 -39.71875 -2.484375 C -39.550781 -1.523438 -39.410156 -0.691406 -39.296875 0.015625 C -39.179688 0.734375 -39.125 1.210938 -39.125 1.453125 C -39.125 3.679688 -40.289062 4.796875 -42.625 4.796875 C -43.25 4.796875 -43.867188 4.734375 -44.484375 4.609375 C -45.097656 4.492188 -45.660156 4.285156 -46.171875 3.984375 C -46.691406 3.691406 -47.132812 3.296875 -47.5 2.796875 C -47.875 2.296875 -48.125 1.660156 -48.25 0.890625 C -48.851562 -2.992188 -49.488281 -6.863281 -50.15625 -10.71875 C -50.820312 -14.582031 -51.519531 -18.476562 -52.25 -22.40625 C -52.414062 -23.269531 -52.570312 -24.050781 -52.71875 -24.75 C -52.875 -25.445312 -53.082031 -26.226562 -53.34375 -27.09375 C -53.613281 -28.03125 -53.875 -29.046875 -54.125 -30.140625 C -54.375 -31.234375 -54.597656 -32.335938 -54.796875 -33.453125 C -54.992188 -34.566406 -55.160156 -35.648438 -55.296875 -36.703125 C -55.429688 -37.753906 -55.5 -38.710938 -55.5 -39.578125 C -55.5 -40.640625 -55.15625 -41.441406 -54.46875 -41.984375 C -53.789062 -42.535156 -52.832031 -42.8125 -51.59375 -42.8125 C -50.96875 -42.8125 -50.363281 -42.757812 -49.78125 -42.65625 C -49.195312 -42.5625 -48.671875 -42.378906 -48.203125 -42.109375 C -47.742188 -41.847656 -47.363281 -41.484375 -47.0625 -41.015625 C -46.757812 -40.554688 -46.578125 -39.957031 -46.515625 -39.21875 C -46.242188 -37.320312 -45.914062 -35.289062 -45.53125 -33.125 C -45.15625 -30.96875 -44.734375 -29.09375 -44.265625 -27.5 C -44.066406 -26.832031 -43.742188 -26.332031 -43.296875 -26 C -42.847656 -25.664062 -42.289062 -25.445312 -41.625 -25.34375 C -40.988281 -25.25 -40.34375 -25.191406 -39.6875 -25.171875 C -39.039062 -25.160156 -38.421875 -25.15625 -37.828125 -25.15625 C -36.429688 -25.15625 -35.035156 -25.210938 -33.640625 -25.328125 C -32.242188 -25.441406 -30.84375 -25.550781 -29.4375 -25.65625 C -24.644531 -25.945312 -19.90625 -26.398438 -15.21875 -27.015625 C -10.53125 -27.640625 -5.789062 -28.316406 -1 -29.046875 C -0.832031 -29.109375 -0.664062 -29.140625 -0.5 -29.140625 C -0.332031 -29.140625 -0.164062 -29.140625 0 -29.140625 C 1.832031 -29.140625 3.128906 -28.109375 3.890625 -26.046875 L 4.59375 -23.796875 C 4.789062 -23.203125 4.890625 -22.625 4.890625 -22.0625 C 4.890625 -21.195312 4.613281 -20.492188 4.0625 -19.953125 C 3.519531 -19.421875 2.710938 -19.070312 1.640625 -18.90625 C -4.078125 -17.976562 -9.769531 -17.164062 -15.4375 -16.46875 C -21.113281 -15.769531 -26.832031 -15.320312 -32.59375 -15.125 C -33.519531 -15.050781 -34.53125 -15 -35.625 -14.96875 C -36.726562 -14.9375 -37.863281 -14.921875 -39.03125 -14.921875 C -40.65625 -14.921875 -41.46875 -14.238281 -41.46875 -12.875 Z M -41.46875 -12.875 "/></g></g></g><g clip-path="url(#43e71366ff)"><g fill="#000000" fill-opacity="1"><g transform="translate(79.147999, 67.514359)"><g><path d="M -12.28125 -7.984375 C -12.28125 -7.878906 -12.257812 -7.71875 -12.21875 -7.5 C -12.1875 -7.289062 -12.15625 -7.0625 -12.125 -6.8125 C -12.09375 -6.5625 -12.0625 -6.316406 -12.03125 -6.078125 C -12 -5.847656 -11.984375 -5.671875 -11.984375 -5.546875 C -11.984375 -4.609375 -12.375 -3.789062 -13.15625 -3.09375 C -13.9375 -2.394531 -14.972656 -2.046875 -16.265625 -2.046875 C -17.128906 -2.046875 -17.960938 -2.328125 -18.765625 -2.890625 C -19.566406 -3.460938 -20.234375 -4.347656 -20.765625 -5.546875 C -20.929688 -5.910156 -21.117188 -6.195312 -21.328125 -6.40625 C -21.546875 -6.625 -21.851562 -6.734375 -22.25 -6.734375 C -23.320312 -6.734375 -24.460938 -6.707031 -25.671875 -6.65625 C -26.890625 -6.613281 -28.3125 -6.539062 -29.9375 -6.4375 C -30.269531 -6.40625 -30.585938 -6.296875 -30.890625 -6.109375 C -31.191406 -5.929688 -31.53125 -5.734375 -31.90625 -5.515625 C -32.289062 -5.296875 -32.71875 -5.101562 -33.1875 -4.9375 C -33.65625 -4.769531 -34.238281 -4.6875 -34.9375 -4.6875 C -35.5625 -4.6875 -36.28125 -4.773438 -37.09375 -4.953125 C -37.914062 -5.140625 -38.679688 -5.523438 -39.390625 -6.109375 C -40.109375 -6.691406 -40.707031 -7.503906 -41.1875 -8.546875 C -41.675781 -9.597656 -41.921875 -10.972656 -41.921875 -12.671875 C -41.921875 -13.367188 -41.851562 -13.953125 -41.71875 -14.421875 C -41.582031 -14.890625 -41.421875 -15.296875 -41.234375 -15.640625 C -41.054688 -15.992188 -40.898438 -16.3125 -40.765625 -16.59375 C -40.640625 -16.875 -40.578125 -17.164062 -40.578125 -17.46875 C -40.578125 -18 -40.675781 -19.0625 -40.875 -20.65625 C -41.070312 -22.257812 -41.351562 -24.179688 -41.71875 -26.421875 C -42.082031 -28.671875 -42.5 -31.148438 -42.96875 -33.859375 C -43.4375 -36.566406 -43.941406 -39.316406 -44.484375 -42.109375 C -45.035156 -44.910156 -45.59375 -47.640625 -46.15625 -50.296875 C -46.726562 -52.960938 -47.28125 -55.378906 -47.8125 -57.546875 C -47.976562 -58.203125 -48.0625 -58.78125 -48.0625 -59.28125 C -48.0625 -59.976562 -47.898438 -60.535156 -47.578125 -60.953125 C -47.265625 -61.367188 -46.875 -61.675781 -46.40625 -61.875 C -45.945312 -62.082031 -45.425781 -62.207031 -44.84375 -62.25 C -44.257812 -62.300781 -43.71875 -62.328125 -43.21875 -62.328125 C -42.351562 -62.328125 -41.546875 -62.035156 -40.796875 -61.453125 C -40.046875 -60.867188 -39.457031 -59.914062 -39.03125 -58.59375 C -38.0625 -55.289062 -37.21875 -51.96875 -36.5 -48.625 C -35.789062 -45.28125 -35.144531 -41.910156 -34.5625 -38.515625 C -33.976562 -35.128906 -33.453125 -31.722656 -32.984375 -28.296875 C -32.515625 -24.867188 -32.050781 -21.457031 -31.59375 -18.0625 C -31.519531 -17.59375 -31.34375 -17.242188 -31.0625 -17.015625 C -30.78125 -16.785156 -30.40625 -16.671875 -29.9375 -16.671875 L -27.890625 -16.671875 C -27.328125 -16.671875 -26.742188 -16.6875 -26.140625 -16.71875 C -25.546875 -16.75 -25 -16.820312 -24.5 -16.9375 C -24 -17.050781 -23.59375 -17.207031 -23.28125 -17.40625 C -22.96875 -17.613281 -22.8125 -17.882812 -22.8125 -18.21875 C -22.8125 -19.007812 -22.972656 -20.242188 -23.296875 -21.921875 C -23.628906 -23.609375 -24.035156 -25.507812 -24.515625 -27.625 C -25.003906 -29.738281 -25.539062 -31.953125 -26.125 -34.265625 C -26.707031 -36.578125 -27.238281 -38.765625 -27.71875 -40.828125 C -28.195312 -42.890625 -28.601562 -44.703125 -28.9375 -46.265625 C -29.269531 -47.828125 -29.4375 -48.921875 -29.4375 -49.546875 C -29.4375 -50.484375 -29.09375 -51.191406 -28.40625 -51.671875 C -27.726562 -52.160156 -26.875 -52.488281 -25.84375 -52.65625 C -25.675781 -52.65625 -25.523438 -52.671875 -25.390625 -52.703125 C -25.265625 -52.734375 -25.117188 -52.75 -24.953125 -52.75 C -23.984375 -52.75 -23.09375 -52.457031 -22.28125 -51.875 C -21.46875 -51.289062 -20.859375 -50.25 -20.453125 -48.75 C -20.328125 -48.351562 -20.117188 -47.554688 -19.828125 -46.359375 C -19.546875 -45.160156 -19.210938 -43.742188 -18.828125 -42.109375 C -18.453125 -40.484375 -18.046875 -38.722656 -17.609375 -36.828125 C -17.179688 -34.929688 -16.757812 -33.066406 -16.34375 -31.234375 C -15.925781 -29.410156 -15.523438 -27.707031 -15.140625 -26.125 C -14.765625 -24.539062 -14.457031 -23.25 -14.21875 -22.25 C -13.988281 -21.351562 -13.804688 -20.8125 -13.671875 -20.625 C -13.535156 -20.445312 -13.367188 -20.359375 -13.171875 -20.359375 C -12.441406 -20.421875 -11.757812 -20.789062 -11.125 -21.46875 C -10.5 -22.15625 -9.914062 -23.023438 -9.375 -24.078125 C -8.84375 -25.128906 -8.359375 -26.3125 -7.921875 -27.625 C -7.492188 -28.9375 -7.140625 -30.296875 -6.859375 -31.703125 C -6.578125 -33.117188 -6.351562 -34.507812 -6.1875 -35.875 C -6.019531 -37.238281 -5.9375 -38.503906 -5.9375 -39.671875 C -5.9375 -40.171875 -5.9375 -40.882812 -5.9375 -41.8125 C -5.9375 -42.75 -5.960938 -43.773438 -6.015625 -44.890625 C -6.066406 -46.003906 -6.140625 -47.148438 -6.234375 -48.328125 C -6.335938 -49.515625 -6.476562 -50.582031 -6.65625 -51.53125 C -6.84375 -52.476562 -7.078125 -53.257812 -7.359375 -53.875 C -7.640625 -54.488281 -7.984375 -54.796875 -8.390625 -54.796875 C -8.753906 -54.796875 -9.132812 -54.671875 -9.53125 -54.421875 C -9.925781 -54.171875 -10.359375 -54.046875 -10.828125 -54.046875 C -11.492188 -54.046875 -12.148438 -54.226562 -12.796875 -54.59375 C -13.453125 -54.957031 -14.035156 -55.429688 -14.546875 -56.015625 C -15.066406 -56.597656 -15.484375 -57.265625 -15.796875 -58.015625 C -16.109375 -58.765625 -16.265625 -59.519531 -16.265625 -60.28125 C -16.265625 -61.25 -16.070312 -62.128906 -15.6875 -62.921875 C -15.3125 -63.722656 -14.816406 -64.414062 -14.203125 -65 C -13.585938 -65.582031 -12.878906 -66.03125 -12.078125 -66.34375 C -11.273438 -66.664062 -10.457031 -66.828125 -9.625 -66.828125 C -7.4375 -66.828125 -5.539062 -66.019531 -3.9375 -64.40625 C -2.34375 -62.789062 -1.023438 -60.6875 0.015625 -58.09375 C 1.066406 -55.5 1.847656 -52.570312 2.359375 -49.3125 C 2.878906 -46.050781 3.140625 -42.769531 3.140625 -39.46875 C 3.140625 -35.613281 2.878906 -32.085938 2.359375 -28.890625 C 1.847656 -25.703125 1.03125 -22.84375 -0.09375 -20.3125 C -1.226562 -17.78125 -2.703125 -15.597656 -4.515625 -13.765625 C -6.328125 -11.941406 -8.53125 -10.445312 -11.125 -9.28125 C -11.894531 -8.882812 -12.28125 -8.453125 -12.28125 -7.984375 Z M -12.28125 -7.984375 "/></g></g></g></g></g></g></g></svg>